<mxfile host="app.diagrams.net" modified="2023-10-22T12:19:39.889Z" agent="Mozilla/5.0 (Windows NT 10.0; Win64; x64) AppleWebKit/537.36 (KHTML, like Gecko) Chrome/116.0.0.0 Safari/537.36 OPR/102.0.0.0" etag="fUufaj9zEQvH5ZiDVf2C" version="22.0.6" type="device">
  <diagram id="C5RBs43oDa-KdzZeNtuy" name="Page-1">
    <mxGraphModel dx="1009" dy="561" grid="1" gridSize="10" guides="1" tooltips="1" connect="1" arrows="1" fold="1" page="1" pageScale="1" pageWidth="827" pageHeight="1169" math="0" shadow="0">
      <root>
        <mxCell id="WIyWlLk6GJQsqaUBKTNV-0" />
        <mxCell id="WIyWlLk6GJQsqaUBKTNV-1" parent="WIyWlLk6GJQsqaUBKTNV-0" />
        <mxCell id="gT3451DP3q2zOtp7gb9K-0" value="Látogató" style="shape=umlActor;verticalLabelPosition=bottom;verticalAlign=top;html=1;outlineConnect=0;" vertex="1" parent="WIyWlLk6GJQsqaUBKTNV-1">
          <mxGeometry x="90" y="120" width="30" height="60" as="geometry" />
        </mxCell>
        <mxCell id="gT3451DP3q2zOtp7gb9K-3" value="Bejelentkezik" style="ellipse;whiteSpace=wrap;html=1;" vertex="1" parent="WIyWlLk6GJQsqaUBKTNV-1">
          <mxGeometry x="190" y="220" width="120" height="80" as="geometry" />
        </mxCell>
        <mxCell id="gT3451DP3q2zOtp7gb9K-4" value="Regisztrál" style="ellipse;whiteSpace=wrap;html=1;" vertex="1" parent="WIyWlLk6GJQsqaUBKTNV-1">
          <mxGeometry x="330" y="200" width="120" height="80" as="geometry" />
        </mxCell>
        <mxCell id="gT3451DP3q2zOtp7gb9K-5" value="Járatot keres" style="ellipse;whiteSpace=wrap;html=1;" vertex="1" parent="WIyWlLk6GJQsqaUBKTNV-1">
          <mxGeometry x="680" y="20" width="120" height="80" as="geometry" />
        </mxCell>
        <mxCell id="gT3451DP3q2zOtp7gb9K-6" value="Akciókat néz" style="ellipse;whiteSpace=wrap;html=1;" vertex="1" parent="WIyWlLk6GJQsqaUBKTNV-1">
          <mxGeometry x="570" y="90" width="120" height="80" as="geometry" />
        </mxCell>
        <mxCell id="gT3451DP3q2zOtp7gb9K-7" value="Rólunk olvas" style="ellipse;whiteSpace=wrap;html=1;" vertex="1" parent="WIyWlLk6GJQsqaUBKTNV-1">
          <mxGeometry x="460" y="150" width="120" height="80" as="geometry" />
        </mxCell>
        <mxCell id="gT3451DP3q2zOtp7gb9K-8" value="" style="endArrow=none;html=1;rounded=0;exitX=1;exitY=0.3333333333333333;exitDx=0;exitDy=0;exitPerimeter=0;entryX=0;entryY=0.5;entryDx=0;entryDy=0;" edge="1" parent="WIyWlLk6GJQsqaUBKTNV-1" source="gT3451DP3q2zOtp7gb9K-0" target="gT3451DP3q2zOtp7gb9K-5">
          <mxGeometry width="50" height="50" relative="1" as="geometry">
            <mxPoint x="170" y="160" as="sourcePoint" />
            <mxPoint x="220" y="110" as="targetPoint" />
          </mxGeometry>
        </mxCell>
        <mxCell id="gT3451DP3q2zOtp7gb9K-10" value="" style="endArrow=none;html=1;rounded=0;exitX=1;exitY=0.3333333333333333;exitDx=0;exitDy=0;exitPerimeter=0;entryX=0;entryY=0.5;entryDx=0;entryDy=0;" edge="1" parent="WIyWlLk6GJQsqaUBKTNV-1" source="gT3451DP3q2zOtp7gb9K-0" target="gT3451DP3q2zOtp7gb9K-6">
          <mxGeometry width="50" height="50" relative="1" as="geometry">
            <mxPoint x="130" y="150" as="sourcePoint" />
            <mxPoint x="220" y="70" as="targetPoint" />
          </mxGeometry>
        </mxCell>
        <mxCell id="gT3451DP3q2zOtp7gb9K-11" value="" style="endArrow=none;html=1;rounded=0;exitX=1;exitY=0.3333333333333333;exitDx=0;exitDy=0;exitPerimeter=0;entryX=0;entryY=0.5;entryDx=0;entryDy=0;" edge="1" parent="WIyWlLk6GJQsqaUBKTNV-1" source="gT3451DP3q2zOtp7gb9K-0" target="gT3451DP3q2zOtp7gb9K-7">
          <mxGeometry width="50" height="50" relative="1" as="geometry">
            <mxPoint x="140" y="160" as="sourcePoint" />
            <mxPoint x="230" y="80" as="targetPoint" />
          </mxGeometry>
        </mxCell>
        <mxCell id="gT3451DP3q2zOtp7gb9K-12" value="" style="endArrow=none;html=1;rounded=0;exitX=1;exitY=0.3333333333333333;exitDx=0;exitDy=0;exitPerimeter=0;entryX=0;entryY=0;entryDx=0;entryDy=0;" edge="1" parent="WIyWlLk6GJQsqaUBKTNV-1" source="gT3451DP3q2zOtp7gb9K-0" target="gT3451DP3q2zOtp7gb9K-4">
          <mxGeometry width="50" height="50" relative="1" as="geometry">
            <mxPoint x="150" y="170" as="sourcePoint" />
            <mxPoint x="240" y="90" as="targetPoint" />
          </mxGeometry>
        </mxCell>
        <mxCell id="gT3451DP3q2zOtp7gb9K-13" value="" style="endArrow=none;html=1;rounded=0;exitX=1;exitY=0.3333333333333333;exitDx=0;exitDy=0;exitPerimeter=0;entryX=0;entryY=0;entryDx=0;entryDy=0;" edge="1" parent="WIyWlLk6GJQsqaUBKTNV-1" source="gT3451DP3q2zOtp7gb9K-0" target="gT3451DP3q2zOtp7gb9K-3">
          <mxGeometry width="50" height="50" relative="1" as="geometry">
            <mxPoint x="160" y="180" as="sourcePoint" />
            <mxPoint x="250" y="100" as="targetPoint" />
          </mxGeometry>
        </mxCell>
        <mxCell id="gT3451DP3q2zOtp7gb9K-14" value="Bejelentkezett&lt;br&gt;Felhasználó" style="shape=umlActor;verticalLabelPosition=bottom;verticalAlign=top;html=1;outlineConnect=0;" vertex="1" parent="WIyWlLk6GJQsqaUBKTNV-1">
          <mxGeometry x="90" y="390" width="30" height="60" as="geometry" />
        </mxCell>
        <mxCell id="gT3451DP3q2zOtp7gb9K-15" value="Járatot keres" style="ellipse;whiteSpace=wrap;html=1;" vertex="1" parent="WIyWlLk6GJQsqaUBKTNV-1">
          <mxGeometry x="190" y="460" width="120" height="80" as="geometry" />
        </mxCell>
        <mxCell id="gT3451DP3q2zOtp7gb9K-16" value="Akciókat néz" style="ellipse;whiteSpace=wrap;html=1;" vertex="1" parent="WIyWlLk6GJQsqaUBKTNV-1">
          <mxGeometry x="330" y="400" width="120" height="80" as="geometry" />
        </mxCell>
        <mxCell id="gT3451DP3q2zOtp7gb9K-17" value="Rólunk olvas" style="ellipse;whiteSpace=wrap;html=1;" vertex="1" parent="WIyWlLk6GJQsqaUBKTNV-1">
          <mxGeometry x="240" y="320" width="120" height="80" as="geometry" />
        </mxCell>
        <mxCell id="gT3451DP3q2zOtp7gb9K-18" value="" style="endArrow=none;html=1;rounded=0;exitX=1;exitY=0.3333333333333333;exitDx=0;exitDy=0;exitPerimeter=0;entryX=0;entryY=0.5;entryDx=0;entryDy=0;" edge="1" parent="WIyWlLk6GJQsqaUBKTNV-1" source="gT3451DP3q2zOtp7gb9K-14" target="gT3451DP3q2zOtp7gb9K-17">
          <mxGeometry width="50" height="50" relative="1" as="geometry">
            <mxPoint x="180" y="430" as="sourcePoint" />
            <mxPoint x="290" y="370" as="targetPoint" />
          </mxGeometry>
        </mxCell>
        <mxCell id="gT3451DP3q2zOtp7gb9K-22" value="" style="endArrow=none;html=1;rounded=0;exitX=1;exitY=0.3333333333333333;exitDx=0;exitDy=0;exitPerimeter=0;entryX=0;entryY=0;entryDx=0;entryDy=0;" edge="1" parent="WIyWlLk6GJQsqaUBKTNV-1" source="gT3451DP3q2zOtp7gb9K-14" target="gT3451DP3q2zOtp7gb9K-15">
          <mxGeometry width="50" height="50" relative="1" as="geometry">
            <mxPoint x="130" y="420" as="sourcePoint" />
            <mxPoint x="300" y="380" as="targetPoint" />
          </mxGeometry>
        </mxCell>
        <mxCell id="gT3451DP3q2zOtp7gb9K-23" value="" style="endArrow=none;html=1;rounded=0;exitX=1;exitY=0.3333333333333333;exitDx=0;exitDy=0;exitPerimeter=0;entryX=0;entryY=0.5;entryDx=0;entryDy=0;" edge="1" parent="WIyWlLk6GJQsqaUBKTNV-1" source="gT3451DP3q2zOtp7gb9K-14" target="gT3451DP3q2zOtp7gb9K-16">
          <mxGeometry width="50" height="50" relative="1" as="geometry">
            <mxPoint x="140" y="430" as="sourcePoint" />
            <mxPoint x="310" y="390" as="targetPoint" />
          </mxGeometry>
        </mxCell>
        <mxCell id="gT3451DP3q2zOtp7gb9K-24" value="Adatok&lt;br&gt;kezelése" style="ellipse;whiteSpace=wrap;html=1;" vertex="1" parent="WIyWlLk6GJQsqaUBKTNV-1">
          <mxGeometry x="580" y="370" width="120" height="80" as="geometry" />
        </mxCell>
        <mxCell id="gT3451DP3q2zOtp7gb9K-25" value="Adatbázis" style="shape=umlActor;verticalLabelPosition=bottom;verticalAlign=top;html=1;outlineConnect=0;" vertex="1" parent="WIyWlLk6GJQsqaUBKTNV-1">
          <mxGeometry x="760" y="380" width="30" height="60" as="geometry" />
        </mxCell>
        <mxCell id="gT3451DP3q2zOtp7gb9K-26" value="" style="endArrow=none;html=1;rounded=0;exitX=1;exitY=0.5;exitDx=0;exitDy=0;entryX=0;entryY=0.3333333333333333;entryDx=0;entryDy=0;entryPerimeter=0;" edge="1" parent="WIyWlLk6GJQsqaUBKTNV-1" source="gT3451DP3q2zOtp7gb9K-24" target="gT3451DP3q2zOtp7gb9K-25">
          <mxGeometry width="50" height="50" relative="1" as="geometry">
            <mxPoint x="710" y="350" as="sourcePoint" />
            <mxPoint x="760" y="300" as="targetPoint" />
          </mxGeometry>
        </mxCell>
        <mxCell id="gT3451DP3q2zOtp7gb9K-27" value="Admin&lt;br&gt;Felhasználó" style="shape=umlActor;verticalLabelPosition=bottom;verticalAlign=top;html=1;outlineConnect=0;" vertex="1" parent="WIyWlLk6GJQsqaUBKTNV-1">
          <mxGeometry x="90" y="900" width="30" height="60" as="geometry" />
        </mxCell>
        <mxCell id="gT3451DP3q2zOtp7gb9K-28" value="Járatot&lt;br&gt;kezel" style="ellipse;whiteSpace=wrap;html=1;" vertex="1" parent="WIyWlLk6GJQsqaUBKTNV-1">
          <mxGeometry x="480" y="890" width="120" height="80" as="geometry" />
        </mxCell>
        <mxCell id="gT3451DP3q2zOtp7gb9K-29" value="" style="endArrow=none;html=1;rounded=0;exitX=1;exitY=0.3333333333333333;exitDx=0;exitDy=0;exitPerimeter=0;entryX=0;entryY=0.5;entryDx=0;entryDy=0;" edge="1" parent="WIyWlLk6GJQsqaUBKTNV-1" source="gT3451DP3q2zOtp7gb9K-27" target="gT3451DP3q2zOtp7gb9K-28">
          <mxGeometry width="50" height="50" relative="1" as="geometry">
            <mxPoint x="230" y="980" as="sourcePoint" />
            <mxPoint x="550" y="890" as="targetPoint" />
          </mxGeometry>
        </mxCell>
        <mxCell id="gT3451DP3q2zOtp7gb9K-30" value="Akciókat módosít" style="ellipse;whiteSpace=wrap;html=1;" vertex="1" parent="WIyWlLk6GJQsqaUBKTNV-1">
          <mxGeometry x="310" y="770" width="120" height="80" as="geometry" />
        </mxCell>
        <mxCell id="gT3451DP3q2zOtp7gb9K-31" value="" style="endArrow=none;html=1;rounded=0;exitX=1;exitY=0.3333333333333333;exitDx=0;exitDy=0;exitPerimeter=0;entryX=0;entryY=0.5;entryDx=0;entryDy=0;" edge="1" parent="WIyWlLk6GJQsqaUBKTNV-1" source="gT3451DP3q2zOtp7gb9K-27" target="gT3451DP3q2zOtp7gb9K-30">
          <mxGeometry width="50" height="50" relative="1" as="geometry">
            <mxPoint x="190" y="875" as="sourcePoint" />
            <mxPoint x="240" y="825" as="targetPoint" />
          </mxGeometry>
        </mxCell>
        <mxCell id="gT3451DP3q2zOtp7gb9K-32" value="Hozzáad" style="ellipse;whiteSpace=wrap;html=1;" vertex="1" parent="WIyWlLk6GJQsqaUBKTNV-1">
          <mxGeometry x="330" y="980" width="120" height="80" as="geometry" />
        </mxCell>
        <mxCell id="gT3451DP3q2zOtp7gb9K-33" value="Módosít" style="ellipse;whiteSpace=wrap;html=1;" vertex="1" parent="WIyWlLk6GJQsqaUBKTNV-1">
          <mxGeometry x="500" y="1030" width="120" height="80" as="geometry" />
        </mxCell>
        <mxCell id="gT3451DP3q2zOtp7gb9K-34" value="Extend" style="endArrow=open;dashed=1;html=1;rounded=0;entryX=0;entryY=1;entryDx=0;entryDy=0;exitX=1;exitY=0;exitDx=0;exitDy=0;horizontal=1;startArrow=none;startFill=0;endFill=0;" edge="1" parent="WIyWlLk6GJQsqaUBKTNV-1" source="gT3451DP3q2zOtp7gb9K-32" target="gT3451DP3q2zOtp7gb9K-28">
          <mxGeometry width="50" height="50" relative="1" as="geometry">
            <mxPoint x="560" y="1180" as="sourcePoint" />
            <mxPoint x="610" y="1130" as="targetPoint" />
          </mxGeometry>
        </mxCell>
        <mxCell id="gT3451DP3q2zOtp7gb9K-35" value="Extend" style="endArrow=open;dashed=1;html=1;rounded=0;entryX=0.5;entryY=1;entryDx=0;entryDy=0;exitX=0.5;exitY=0;exitDx=0;exitDy=0;horizontal=1;startArrow=none;startFill=0;endFill=0;" edge="1" parent="WIyWlLk6GJQsqaUBKTNV-1" source="gT3451DP3q2zOtp7gb9K-33" target="gT3451DP3q2zOtp7gb9K-28">
          <mxGeometry width="50" height="50" relative="1" as="geometry">
            <mxPoint x="620" y="1020" as="sourcePoint" />
            <mxPoint x="610" y="960" as="targetPoint" />
          </mxGeometry>
        </mxCell>
        <mxCell id="gT3451DP3q2zOtp7gb9K-36" value="Töröl" style="ellipse;whiteSpace=wrap;html=1;" vertex="1" parent="WIyWlLk6GJQsqaUBKTNV-1">
          <mxGeometry x="660" y="960" width="120" height="80" as="geometry" />
        </mxCell>
        <mxCell id="gT3451DP3q2zOtp7gb9K-37" value="Extend" style="endArrow=open;dashed=1;html=1;rounded=0;exitX=0;exitY=0.5;exitDx=0;exitDy=0;horizontal=1;startArrow=none;startFill=0;endFill=0;entryX=1;entryY=1;entryDx=0;entryDy=0;" edge="1" parent="WIyWlLk6GJQsqaUBKTNV-1" source="gT3451DP3q2zOtp7gb9K-36" target="gT3451DP3q2zOtp7gb9K-28">
          <mxGeometry width="50" height="50" relative="1" as="geometry">
            <mxPoint x="660" y="1000" as="sourcePoint" />
            <mxPoint x="600" y="950" as="targetPoint" />
          </mxGeometry>
        </mxCell>
        <mxCell id="gT3451DP3q2zOtp7gb9K-38" value="Hozzáad" style="ellipse;whiteSpace=wrap;html=1;" vertex="1" parent="WIyWlLk6GJQsqaUBKTNV-1">
          <mxGeometry x="120" y="710" width="120" height="80" as="geometry" />
        </mxCell>
        <mxCell id="gT3451DP3q2zOtp7gb9K-39" value="Módosít" style="ellipse;whiteSpace=wrap;html=1;" vertex="1" parent="WIyWlLk6GJQsqaUBKTNV-1">
          <mxGeometry x="250" y="650" width="120" height="80" as="geometry" />
        </mxCell>
        <mxCell id="gT3451DP3q2zOtp7gb9K-40" value="Extend" style="endArrow=open;dashed=1;html=1;rounded=0;entryX=0;entryY=0;entryDx=0;entryDy=0;exitX=1;exitY=0.5;exitDx=0;exitDy=0;horizontal=1;startArrow=none;startFill=0;endFill=0;" edge="1" parent="WIyWlLk6GJQsqaUBKTNV-1" source="gT3451DP3q2zOtp7gb9K-38" target="gT3451DP3q2zOtp7gb9K-30">
          <mxGeometry width="50" height="50" relative="1" as="geometry">
            <mxPoint x="200" y="1270" as="sourcePoint" />
            <mxPoint x="170" y="1060" as="targetPoint" />
          </mxGeometry>
        </mxCell>
        <mxCell id="gT3451DP3q2zOtp7gb9K-41" value="Extend" style="endArrow=open;dashed=1;html=1;rounded=0;entryX=0.5;entryY=0;entryDx=0;entryDy=0;exitX=1;exitY=1;exitDx=0;exitDy=0;horizontal=1;startArrow=none;startFill=0;endFill=0;" edge="1" parent="WIyWlLk6GJQsqaUBKTNV-1" source="gT3451DP3q2zOtp7gb9K-39" target="gT3451DP3q2zOtp7gb9K-30">
          <mxGeometry width="50" height="50" relative="1" as="geometry">
            <mxPoint x="260" y="1110" as="sourcePoint" />
            <mxPoint x="212" y="1048" as="targetPoint" />
          </mxGeometry>
        </mxCell>
        <mxCell id="gT3451DP3q2zOtp7gb9K-42" value="Töröl" style="ellipse;whiteSpace=wrap;html=1;" vertex="1" parent="WIyWlLk6GJQsqaUBKTNV-1">
          <mxGeometry x="460" y="700" width="120" height="80" as="geometry" />
        </mxCell>
        <mxCell id="gT3451DP3q2zOtp7gb9K-43" value="Extend" style="endArrow=open;dashed=1;html=1;rounded=0;exitX=0;exitY=1;exitDx=0;exitDy=0;horizontal=1;startArrow=none;startFill=0;endFill=0;entryX=1;entryY=0.5;entryDx=0;entryDy=0;" edge="1" parent="WIyWlLk6GJQsqaUBKTNV-1" source="gT3451DP3q2zOtp7gb9K-42" target="gT3451DP3q2zOtp7gb9K-30">
          <mxGeometry width="50" height="50" relative="1" as="geometry">
            <mxPoint x="306" y="1082" as="sourcePoint" />
            <mxPoint x="230" y="1020" as="targetPoint" />
          </mxGeometry>
        </mxCell>
        <mxCell id="gT3451DP3q2zOtp7gb9K-46" value="Include" style="endArrow=open;dashed=1;html=1;rounded=0;horizontal=1;startArrow=none;startFill=0;endFill=0;exitX=1;exitY=0;exitDx=0;exitDy=0;entryX=0;entryY=1;entryDx=0;entryDy=0;" edge="1" parent="WIyWlLk6GJQsqaUBKTNV-1" source="gT3451DP3q2zOtp7gb9K-30" target="gT3451DP3q2zOtp7gb9K-24">
          <mxGeometry width="50" height="50" relative="1" as="geometry">
            <mxPoint x="610" y="530" as="sourcePoint" />
            <mxPoint x="680" y="610" as="targetPoint" />
          </mxGeometry>
        </mxCell>
        <mxCell id="gT3451DP3q2zOtp7gb9K-48" value="Include" style="endArrow=open;dashed=1;html=1;rounded=0;horizontal=1;startArrow=none;startFill=0;endFill=0;entryX=0.5;entryY=1;entryDx=0;entryDy=0;exitX=1;exitY=0;exitDx=0;exitDy=0;" edge="1" parent="WIyWlLk6GJQsqaUBKTNV-1" source="gT3451DP3q2zOtp7gb9K-28" target="gT3451DP3q2zOtp7gb9K-24">
          <mxGeometry width="50" height="50" relative="1" as="geometry">
            <mxPoint x="560" y="830" as="sourcePoint" />
            <mxPoint x="646" y="470" as="targetPoint" />
          </mxGeometry>
        </mxCell>
        <mxCell id="gT3451DP3q2zOtp7gb9K-49" value="Include" style="endArrow=open;dashed=1;html=1;rounded=0;horizontal=1;startArrow=none;startFill=0;endFill=0;exitX=1;exitY=1;exitDx=0;exitDy=0;entryX=0;entryY=0;entryDx=0;entryDy=0;" edge="1" parent="WIyWlLk6GJQsqaUBKTNV-1" source="gT3451DP3q2zOtp7gb9K-3" target="gT3451DP3q2zOtp7gb9K-24">
          <mxGeometry width="50" height="50" relative="1" as="geometry">
            <mxPoint x="464" y="464" as="sourcePoint" />
            <mxPoint x="660" y="200" as="targetPoint" />
          </mxGeometry>
        </mxCell>
        <mxCell id="gT3451DP3q2zOtp7gb9K-50" value="Include" style="endArrow=open;dashed=1;html=1;rounded=0;horizontal=1;startArrow=none;startFill=0;endFill=0;exitX=1;exitY=1;exitDx=0;exitDy=0;entryX=0;entryY=0;entryDx=0;entryDy=0;" edge="1" parent="WIyWlLk6GJQsqaUBKTNV-1" source="gT3451DP3q2zOtp7gb9K-4" target="gT3451DP3q2zOtp7gb9K-24">
          <mxGeometry width="50" height="50" relative="1" as="geometry">
            <mxPoint x="430" y="226" as="sourcePoint" />
            <mxPoint x="736" y="320" as="targetPoint" />
          </mxGeometry>
        </mxCell>
        <mxCell id="gT3451DP3q2zOtp7gb9K-51" value="Include" style="endArrow=open;dashed=1;html=1;rounded=0;horizontal=1;startArrow=none;startFill=0;endFill=0;exitX=0.5;exitY=1;exitDx=0;exitDy=0;entryX=0.5;entryY=0;entryDx=0;entryDy=0;" edge="1" parent="WIyWlLk6GJQsqaUBKTNV-1" source="gT3451DP3q2zOtp7gb9K-7" target="gT3451DP3q2zOtp7gb9K-24">
          <mxGeometry width="50" height="50" relative="1" as="geometry">
            <mxPoint x="534" y="250" as="sourcePoint" />
            <mxPoint x="840" y="344" as="targetPoint" />
          </mxGeometry>
        </mxCell>
        <mxCell id="gT3451DP3q2zOtp7gb9K-52" value="Include" style="endArrow=open;dashed=1;html=1;rounded=0;horizontal=1;startArrow=none;startFill=0;endFill=0;exitX=0.5;exitY=1;exitDx=0;exitDy=0;" edge="1" parent="WIyWlLk6GJQsqaUBKTNV-1" source="gT3451DP3q2zOtp7gb9K-6">
          <mxGeometry width="50" height="50" relative="1" as="geometry">
            <mxPoint x="530" y="240" as="sourcePoint" />
            <mxPoint x="640" y="370" as="targetPoint" />
          </mxGeometry>
        </mxCell>
        <mxCell id="gT3451DP3q2zOtp7gb9K-53" value="Include" style="endArrow=open;dashed=1;html=1;rounded=0;horizontal=1;startArrow=none;startFill=0;endFill=0;exitX=0.5;exitY=1;exitDx=0;exitDy=0;entryX=1;entryY=0;entryDx=0;entryDy=0;" edge="1" parent="WIyWlLk6GJQsqaUBKTNV-1" source="gT3451DP3q2zOtp7gb9K-5" target="gT3451DP3q2zOtp7gb9K-24">
          <mxGeometry width="50" height="50" relative="1" as="geometry">
            <mxPoint x="540" y="250" as="sourcePoint" />
            <mxPoint x="660" y="390" as="targetPoint" />
          </mxGeometry>
        </mxCell>
        <mxCell id="gT3451DP3q2zOtp7gb9K-54" value="Include" style="endArrow=open;dashed=1;html=1;rounded=0;horizontal=1;startArrow=none;startFill=0;endFill=0;exitX=1;exitY=0.5;exitDx=0;exitDy=0;entryX=0;entryY=0.5;entryDx=0;entryDy=0;" edge="1" parent="WIyWlLk6GJQsqaUBKTNV-1" source="gT3451DP3q2zOtp7gb9K-17" target="gT3451DP3q2zOtp7gb9K-24">
          <mxGeometry width="50" height="50" relative="1" as="geometry">
            <mxPoint x="302" y="298" as="sourcePoint" />
            <mxPoint x="608" y="392" as="targetPoint" />
          </mxGeometry>
        </mxCell>
        <mxCell id="gT3451DP3q2zOtp7gb9K-55" value="Include" style="endArrow=open;dashed=1;html=1;rounded=0;horizontal=1;startArrow=none;startFill=0;endFill=0;exitX=1;exitY=0.5;exitDx=0;exitDy=0;" edge="1" parent="WIyWlLk6GJQsqaUBKTNV-1" source="gT3451DP3q2zOtp7gb9K-16">
          <mxGeometry width="50" height="50" relative="1" as="geometry">
            <mxPoint x="370" y="370" as="sourcePoint" />
            <mxPoint x="580" y="410" as="targetPoint" />
          </mxGeometry>
        </mxCell>
        <mxCell id="gT3451DP3q2zOtp7gb9K-56" value="Foglalás" style="ellipse;whiteSpace=wrap;html=1;" vertex="1" parent="WIyWlLk6GJQsqaUBKTNV-1">
          <mxGeometry x="340" y="540" width="120" height="80" as="geometry" />
        </mxCell>
        <mxCell id="gT3451DP3q2zOtp7gb9K-57" value="Include" style="endArrow=open;dashed=1;html=1;rounded=0;horizontal=1;startArrow=none;startFill=0;endFill=0;exitX=1;exitY=1;exitDx=0;exitDy=0;entryX=0;entryY=0.5;entryDx=0;entryDy=0;" edge="1" parent="WIyWlLk6GJQsqaUBKTNV-1" source="gT3451DP3q2zOtp7gb9K-15" target="gT3451DP3q2zOtp7gb9K-56">
          <mxGeometry width="50" height="50" relative="1" as="geometry">
            <mxPoint x="460" y="450" as="sourcePoint" />
            <mxPoint x="590" y="420" as="targetPoint" />
          </mxGeometry>
        </mxCell>
        <mxCell id="gT3451DP3q2zOtp7gb9K-58" value="Include" style="endArrow=open;dashed=1;html=1;rounded=0;horizontal=1;startArrow=none;startFill=0;endFill=0;exitX=1;exitY=0;exitDx=0;exitDy=0;entryX=0;entryY=1;entryDx=0;entryDy=0;" edge="1" parent="WIyWlLk6GJQsqaUBKTNV-1" source="gT3451DP3q2zOtp7gb9K-56" target="gT3451DP3q2zOtp7gb9K-24">
          <mxGeometry width="50" height="50" relative="1" as="geometry">
            <mxPoint x="470" y="460" as="sourcePoint" />
            <mxPoint x="550" y="450" as="targetPoint" />
          </mxGeometry>
        </mxCell>
      </root>
    </mxGraphModel>
  </diagram>
</mxfile>
